<svg width="27" height="27" viewBox="0 0 27 27" fill="none" xmlns="http://www.w3.org/2000/svg">
<path d="M26.4376 24.7287L19.58 17.8711C21.1229 15.9455 21.9619 13.5506 21.958 11.083C21.958 5.07699 17.0893 0.208008 11.083 0.208008C5.07699 0.208008 0.208008 5.07699 0.208008 11.083C0.208008 17.089 5.07699 21.958 11.083 21.958C13.6507 21.958 16.0106 21.0681 17.8711 19.5797L24.7287 26.4373C24.8408 26.5497 24.9739 26.6388 25.1205 26.6996C25.2671 26.7603 25.4243 26.7915 25.583 26.7913C25.822 26.7913 26.0556 26.7205 26.2543 26.5877C26.453 26.455 26.6079 26.2663 26.6994 26.0455C26.7908 25.8247 26.8148 25.5818 26.7682 25.3474C26.7216 25.113 26.6066 24.8977 26.4376 24.7287ZM11.083 19.5413C6.41159 19.5413 2.62467 15.7544 2.62467 11.083C2.62467 6.41159 6.41159 2.62467 11.083 2.62467C15.7547 2.62467 19.5413 6.41159 19.5413 11.083C19.5413 15.7544 15.7547 19.5413 11.083 19.5413Z" fill="white"/>
</svg>
